<?xml version="1.0" encoding="windows-1252"?>
<!-- Generator: Adobe Illustrator 16.0.0, SVG Export Plug-In . SVG Version: 6.00 Build 0)  -->
<!DOCTYPE svg PUBLIC "-//W3C//DTD SVG 1.1//EN" "http://www.w3.org/Graphics/SVG/1.1/DTD/svg11.dtd">
<svg version="1.1" id="Layer_1" xmlns="http://www.w3.org/2000/svg" xmlns:xlink="http://www.w3.org/1999/xlink" x="0px" y="0px" width="265.663px" height="105.225px" viewBox="0 0 265.663 105.225" style="enable-background:new 0 0 265.663 105.225;" xml:space="preserve">
<path style="fill:#0F0F0F;" d="M154.15,0.311c-2.377,0.451-4.543,1.337-5.345,3.906c-0.407,1.306-0.447,2.727,0.945,3.556  c1.365,0.813,2.146-0.23,2.865-1.172c1.108-1.454,2.065-2.99,4.254-3.056c9.39-0.283,16.775,9.803,13.49,18.594  c-3.4,9.104-10.572,15.234-17.539,21.38c-3.855,3.401-6.496,2.152-7.713-2.948c-0.435-1.822-0.294-3.631,0.1-5.447  c0.565-2.604,1.127-5.211,1.602-7.833c0.277-1.53,0.295-3.392-1.583-3.628c-1.703-0.215-2.42,1.452-2.746,3.001  c-0.137,0.65-0.142,1.327-0.271,1.979c-1.457,7.341-5.945,12.937-10.79,18.247c-1.541,1.688-3.764,3.293-6.182,1.6  c-2.224-1.557-1.353-3.89-0.567-5.93c2.12-5.507,5.576-9.818,11.202-12.092c1.62-0.654,3.858-0.465,4.234-2.826  c0.124-0.779-0.323-1.651-1.255-1.949c-1.941-0.622-3.613,0.104-5.156,1.179c-1.228,0.855-2.37,1.834-3.565,2.737  c-5.714,4.317-11.418,8.647-17.17,12.913c-0.686,0.508-1.339,1.812-2.426,0.959c-0.763-0.598-0.013-1.541,0.088-2.334  c0.6-4.722,3.036-8.763,4.712-13.092c0.79-2.039,1.684-4.977-1.589-5.787c-2.996-0.741-4.425,1.87-4.484,4.177  c-0.205,8.036-6.86,10.852-11.741,15.044c-1.556,1.336-3.823,2.471-5.91,0.565c-1.844-1.685-1.873-4.009-0.972-6.013  c1.06-2.355,1.232-4.803,1.659-7.243c0.268-1.529-0.186-2.746-1.774-3.048c-1.45-0.277-2.241,0.938-2.345,2.057  c-0.747,8.058-7.775,11.121-12.573,15.934c-0.757,0.759-1.994,1.974-3.011,1.273c-1.277-0.879,0.201-2.074,0.553-3.018  c2.434-6.533,2.081-12.805-1.79-18.64c-3.946-5.949-13.415-5.937-16.195,0.323c-4.233,9.532-12.666,14.76-20.029,21.138  c-0.69,0.598-1.539,1.731-2.529,1.052c-0.914-0.627-0.354-1.874-0.124-2.79c1.054-4.192,2.305-8.337,3.233-12.555  c0.291-1.319,0.862-3.527-0.74-4.023c-2.02-0.625-1.947,1.812-2.419,3.008c-3.553,9.002-10.028,14.717-19.199,17.548  c-1.464,0.452-2.928,1.127-4.163-0.247c-1.217-1.353-0.598-2.791,0.145-4.162c3.501-6.466,8.584-11.408,14.748-15.302  c1.328-0.838,2.681-1.585,3.778,0.35c0.521,0.918,1.239,1.838,2.334,1.061c0.863-0.613,0.827-1.787,0.549-2.783  c-0.89-3.186-2.714-4.43-5.957-2.877C16.203,27.206,9.725,33.462,5.74,42.116c-2.291,4.976,0.223,8.597,5.805,8.453  c4.997-0.128,9.283-2.306,13.305-5.145c1.115-0.787,2.291-3.101,3.547-1.812c1.381,1.417,0.684,3.792-0.581,5.483  c-0.582,0.778-1.459,1.357-2.264,1.942c-6.657,4.838-12.314,10.708-17.481,17.059C2.845,74.52,0.216,81.938,0,90.212  c0.044,2.685,0.311,5.333,1.382,7.828c1.659,3.864,3.953,6.854,8.677,7.159c4.69,0.305,7.508-2.156,9.561-5.897  c1.769-3.223,2.998-6.675,4.005-10.211c3.198-11.233,4.927-22.776,7.156-34.211c0.414-2.123,1.138-3.727,2.875-4.969  c3.252-2.325,6.531-4.622,9.652-7.116c1.998-1.596,2.916-1.079,3.256,1.193c0.985,6.576,7.306,10.61,15.046,8.403  c8.013-2.284,16.577-4.19,22.154-11.507c2.019-2.649,2.685-1.542,3.488,1.087c1.561,5.115,4.252,6.269,9.082,4.088  c2.095-0.946,3.722-2.881,5.893-3.708c1.961-0.747,3.18-3.685,4.502-2.729c0.713,0.515-0.384,3.9-0.78,5.951  c-0.351,1.816-1.885,2.593-3.298,3.52c-3.756,2.466-7.635,4.8-11.116,7.617c-6.12,4.954-11.825,10.351-14.002,18.362  c-2.316,8.521,0.412,16.013,6.679,18.363c5.823,2.186,11.492-0.988,15.736-9.056c4.313-8.201,6.81-17.058,7.66-26.2  c0.574-6.166,2.712-10.526,8.26-13.579c4.481-2.466,4.276-2.839,4.763,2.177c0.514,5.292,3.757,7.238,8.713,5.214  c4.092-1.669,6.464-5.068,8.783-8.581c0.766-1.162,1.186-3.275,2.961-2.912c1.324,0.271,1.134,2.212,1.563,3.436  c1.906,5.43,4.929,7.297,8.791,4.51c9.524-6.871,18.341-14.716,22.345-26.173C178.062,10.044,166.929-2.112,154.15,0.311   M112.453,24.013c3.536-0.52-1.211,5.642-1.571,5.665C110.882,29.678,111.053,24.219,112.453,24.013 M27.405,56.539  c-2.846,13.298-4.853,26.813-10.107,39.49c-0.442,1.066-1.001,2.113-1.671,3.052c-2.89,4.049-7.448,3.872-10.159-0.351  c-1.499-2.334-2.294-5.77-2.201-9.565c0.056-6.013,1.866-11.5,5.472-16.246c4.836-6.366,10.656-11.842,16.457-17.315  c0.589-0.557,1.177-1.41,2.032-0.92C27.545,54.865,27.534,55.934,27.405,56.539 M61.109,49.203  c-0.715,0.857-1.773,0.778-3.005,0.827c-3.099-0.263-5.889-1.419-7.435-4.643c-1.653-3.446-1.256-6.884,0.549-10.034  c1.129-1.973,2.499-1.322,3.019,0.66c1.12,4.271,3.018,8.061,6.273,11.12C61.074,47.663,61.874,48.286,61.109,49.203 M66.478,45.66  c-2.239,1.208-6.784-3.771-8.591-9.091c-0.527-1.551-0.929-3.193-1.063-4.82c-0.438-5.32,1.923-8.86,6.017-9.286  c3.445-0.358,6.958,2.927,7.92,7.502c0.305,1.45,0.407,2.942,0.592,4.345C70.804,38.653,70.831,43.311,66.478,45.66 M104.564,55.053  c-1.445,8.702-3.085,17.358-6.839,25.434c-0.697,1.5-1.546,2.959-2.516,4.297c-2.338,3.228-5.275,6.154-9.522,4.959  c-4.572-1.284-5.213-5.565-5.482-9.532c0.163-3.033,0.769-5.752,2.341-8.218c4.936-7.747,11.773-13.493,19.379-18.42  c0.652-0.424,1.634-0.893,2.246-0.689C105.103,53.193,104.693,54.275,104.564,55.053"/>
<g>
	<path d="M122.601,74.784v-8.521h0.84v7.776h4.92v0.744H122.601z"/>
	<path d="M131.097,67.344l-0.54-0.203l0.708-1.116h0.864L131.097,67.344z M130.617,74.784v-6.252h0.816v6.252H130.617z"/>
	<path d="M137,74.904c-0.432,0-0.832-0.09-1.2-0.27c-0.368-0.181-0.684-0.418-0.948-0.715c-0.264-0.295-0.47-0.638-0.618-1.025   c-0.148-0.389-0.222-0.795-0.222-1.219c0-0.439,0.072-0.857,0.216-1.254c0.144-0.396,0.342-0.742,0.594-1.037   c0.252-0.297,0.552-0.53,0.9-0.703c0.348-0.172,0.73-0.258,1.146-0.258c0.528,0,0.996,0.139,1.404,0.414   c0.407,0.276,0.728,0.61,0.96,1.002v-3.815h0.816v7.704c0,0.224,0.096,0.336,0.287,0.336v0.72   c-0.119,0.024-0.216,0.036-0.287,0.036c-0.192,0-0.361-0.063-0.504-0.186c-0.145-0.125-0.217-0.274-0.217-0.451v-0.611   c-0.248,0.408-0.584,0.732-1.008,0.972C137.897,74.784,137.457,74.904,137,74.904z M137.18,74.184c0.2,0,0.414-0.039,0.643-0.119   s0.441-0.19,0.643-0.33c0.199-0.141,0.369-0.305,0.51-0.492c0.14-0.188,0.226-0.391,0.258-0.605v-1.933   c-0.08-0.216-0.196-0.418-0.348-0.606c-0.152-0.188-0.326-0.354-0.522-0.498c-0.196-0.144-0.406-0.256-0.63-0.336   c-0.225-0.08-0.444-0.119-0.66-0.119c-0.336,0-0.64,0.072-0.912,0.216s-0.506,0.334-0.702,0.569   c-0.196,0.236-0.346,0.506-0.45,0.811s-0.156,0.616-0.156,0.936c0,0.336,0.06,0.656,0.18,0.961c0.12,0.304,0.284,0.569,0.492,0.797   c0.208,0.229,0.454,0.41,0.738,0.547C136.546,74.116,136.852,74.184,137.18,74.184z"/>
	<path d="M145.796,74.904c-0.456,0-0.874-0.086-1.254-0.258s-0.71-0.408-0.99-0.709c-0.28-0.299-0.498-0.645-0.653-1.037   c-0.156-0.393-0.234-0.813-0.234-1.26c0-0.44,0.078-0.854,0.234-1.242c0.155-0.389,0.371-0.729,0.647-1.02   c0.276-0.293,0.606-0.524,0.989-0.697c0.385-0.172,0.801-0.258,1.248-0.258c0.457,0,0.875,0.086,1.254,0.258   c0.381,0.173,0.707,0.406,0.979,0.703c0.271,0.295,0.484,0.635,0.637,1.02c0.151,0.384,0.228,0.792,0.228,1.225   c0,0.063,0,0.127,0,0.191s-0.005,0.107-0.013,0.132h-5.352c0.024,0.336,0.102,0.646,0.234,0.931   c0.132,0.283,0.302,0.529,0.51,0.737s0.445,0.37,0.714,0.485c0.269,0.117,0.554,0.175,0.858,0.175c0.199,0,0.4-0.028,0.6-0.084   c0.2-0.056,0.385-0.132,0.553-0.228c0.168-0.097,0.319-0.215,0.455-0.354c0.137-0.14,0.24-0.294,0.313-0.462l0.708,0.191   c-0.097,0.232-0.232,0.442-0.408,0.631c-0.176,0.188-0.38,0.352-0.612,0.492c-0.232,0.14-0.488,0.248-0.768,0.323   C146.392,74.866,146.1,74.904,145.796,74.904z M148.1,71.328c-0.023-0.336-0.102-0.643-0.234-0.918   c-0.131-0.275-0.299-0.514-0.504-0.714c-0.203-0.2-0.439-0.356-0.707-0.468c-0.269-0.112-0.555-0.168-0.858-0.168   s-0.593,0.056-0.864,0.168c-0.271,0.111-0.51,0.268-0.714,0.468s-0.368,0.44-0.492,0.72c-0.124,0.28-0.198,0.584-0.222,0.912H148.1   z"/>
	<path d="M154.46,69.252c-0.552,0.016-1.032,0.168-1.44,0.456s-0.695,0.685-0.863,1.188v3.888h-0.816v-6.252h0.768v1.5   c0.232-0.479,0.545-0.856,0.937-1.128s0.812-0.408,1.26-0.408c0.063,0,0.116,0.004,0.156,0.012V69.252z"/>
	<path d="M159.128,74.904c-0.456,0-0.874-0.086-1.254-0.258s-0.71-0.408-0.99-0.709c-0.28-0.299-0.498-0.645-0.653-1.037   c-0.156-0.393-0.234-0.813-0.234-1.26c0-0.44,0.078-0.854,0.234-1.242c0.155-0.389,0.371-0.729,0.647-1.02   c0.276-0.293,0.606-0.524,0.989-0.697c0.385-0.172,0.801-0.258,1.248-0.258c0.457,0,0.875,0.086,1.254,0.258   c0.381,0.173,0.707,0.406,0.979,0.703c0.271,0.295,0.484,0.635,0.637,1.02c0.151,0.384,0.228,0.792,0.228,1.225   c0,0.063,0,0.127,0,0.191s-0.005,0.107-0.013,0.132h-5.352c0.024,0.336,0.102,0.646,0.234,0.931   c0.132,0.283,0.302,0.529,0.51,0.737s0.445,0.37,0.714,0.485c0.269,0.117,0.554,0.175,0.858,0.175c0.199,0,0.4-0.028,0.6-0.084   c0.2-0.056,0.385-0.132,0.553-0.228c0.168-0.097,0.319-0.215,0.455-0.354c0.137-0.14,0.24-0.294,0.313-0.462l0.708,0.191   c-0.097,0.232-0.232,0.442-0.408,0.631c-0.176,0.188-0.38,0.352-0.612,0.492c-0.232,0.14-0.488,0.248-0.768,0.323   C159.724,74.866,159.432,74.904,159.128,74.904z M161.432,71.328c-0.023-0.336-0.102-0.643-0.234-0.918   c-0.131-0.275-0.299-0.514-0.504-0.714c-0.203-0.2-0.439-0.356-0.707-0.468c-0.269-0.112-0.555-0.168-0.858-0.168   s-0.593,0.056-0.864,0.168c-0.271,0.111-0.51,0.268-0.714,0.468s-0.368,0.44-0.492,0.72c-0.124,0.28-0.198,0.584-0.222,0.912   H161.432z"/>
	<path d="M166.749,74.904c-0.488,0-0.965-0.08-1.429-0.24s-0.864-0.392-1.2-0.695l0.373-0.553c0.352,0.288,0.709,0.504,1.073,0.648   c0.364,0.144,0.754,0.216,1.17,0.216c0.504,0,0.906-0.103,1.206-0.306c0.301-0.205,0.45-0.494,0.45-0.871   c0-0.176-0.04-0.321-0.12-0.438c-0.08-0.115-0.198-0.218-0.354-0.306c-0.156-0.088-0.353-0.166-0.588-0.234   c-0.236-0.067-0.511-0.138-0.822-0.21c-0.36-0.088-0.672-0.176-0.937-0.264c-0.264-0.088-0.481-0.188-0.653-0.301   c-0.173-0.111-0.301-0.25-0.385-0.414c-0.084-0.163-0.125-0.369-0.125-0.617c0-0.313,0.061-0.588,0.186-0.828   c0.123-0.24,0.291-0.438,0.504-0.594c0.212-0.156,0.46-0.274,0.744-0.354c0.283-0.079,0.586-0.12,0.906-0.12   c0.479,0,0.916,0.078,1.308,0.234s0.708,0.361,0.948,0.618l-0.396,0.479c-0.232-0.24-0.514-0.42-0.846-0.539   c-0.332-0.121-0.678-0.181-1.038-0.181c-0.216,0-0.416,0.022-0.601,0.065c-0.184,0.045-0.346,0.115-0.485,0.211   s-0.251,0.218-0.33,0.365c-0.08,0.148-0.12,0.322-0.12,0.522c0,0.168,0.027,0.304,0.084,0.408c0.056,0.104,0.148,0.194,0.275,0.271   c0.129,0.075,0.291,0.143,0.486,0.203c0.196,0.061,0.434,0.122,0.715,0.186c0.399,0.097,0.752,0.192,1.056,0.289   c0.304,0.096,0.558,0.207,0.762,0.336c0.204,0.127,0.358,0.283,0.462,0.468s0.156,0.407,0.156,0.672   c0,0.576-0.221,1.032-0.66,1.368S167.493,74.904,166.749,74.904z"/>
	<path d="M178.676,74.904c-0.455,0-0.873-0.086-1.254-0.258c-0.38-0.172-0.71-0.408-0.99-0.709   c-0.279-0.299-0.498-0.645-0.653-1.037c-0.156-0.393-0.234-0.813-0.234-1.26c0-0.44,0.078-0.854,0.234-1.242   c0.155-0.389,0.372-0.729,0.647-1.02c0.276-0.293,0.606-0.524,0.99-0.697c0.385-0.172,0.8-0.258,1.248-0.258   c0.456,0,0.874,0.086,1.254,0.258c0.38,0.173,0.706,0.406,0.979,0.703c0.271,0.295,0.483,0.635,0.636,1.02   c0.151,0.384,0.228,0.792,0.228,1.225c0,0.063,0,0.127,0,0.191s-0.004,0.107-0.012,0.132h-5.352   c0.023,0.336,0.102,0.646,0.234,0.931c0.131,0.283,0.301,0.529,0.51,0.737c0.207,0.208,0.445,0.37,0.713,0.485   c0.269,0.117,0.555,0.175,0.859,0.175c0.199,0,0.399-0.028,0.6-0.084c0.199-0.056,0.384-0.132,0.552-0.228   c0.168-0.097,0.319-0.215,0.456-0.354c0.136-0.14,0.24-0.294,0.313-0.462l0.707,0.191c-0.096,0.232-0.232,0.442-0.408,0.631   c-0.176,0.188-0.379,0.352-0.611,0.492c-0.232,0.14-0.488,0.248-0.768,0.323C179.272,74.866,178.981,74.904,178.676,74.904z    M180.981,71.328c-0.024-0.336-0.103-0.643-0.234-0.918s-0.3-0.514-0.504-0.714s-0.439-0.356-0.708-0.468   c-0.269-0.112-0.554-0.168-0.858-0.168c-0.304,0-0.592,0.056-0.863,0.168c-0.272,0.111-0.51,0.268-0.715,0.468   c-0.203,0.2-0.367,0.44-0.492,0.72c-0.123,0.28-0.197,0.584-0.221,0.912H180.981z"/>
	<path d="M189.476,74.784h-0.815v-3.492c0-0.743-0.11-1.284-0.33-1.62c-0.221-0.336-0.559-0.504-1.014-0.504   c-0.24,0-0.48,0.045-0.721,0.133s-0.462,0.211-0.666,0.371s-0.386,0.351-0.546,0.57c-0.16,0.221-0.276,0.458-0.349,0.714v3.828   h-0.815v-6.252h0.744v1.416c0.256-0.456,0.622-0.823,1.099-1.104c0.475-0.279,0.993-0.42,1.553-0.42   c0.344,0,0.637,0.064,0.877,0.192s0.432,0.308,0.576,0.54c0.144,0.232,0.248,0.516,0.312,0.852s0.096,0.709,0.096,1.116V74.784z"/>
</g>
<g>
	<path d="M124.005,89.305c-0.296,0-0.57-0.051-0.822-0.15s-0.472-0.238-0.66-0.414c-0.188-0.176-0.334-0.383-0.438-0.618   s-0.156-0.489-0.156-0.763c0-0.271,0.064-0.523,0.192-0.756c0.128-0.231,0.308-0.432,0.54-0.6s0.508-0.298,0.828-0.39   c0.32-0.093,0.672-0.138,1.056-0.138c0.32,0,0.644,0.027,0.972,0.084c0.328,0.056,0.62,0.136,0.876,0.24v-0.564   c0-0.553-0.156-0.99-0.468-1.314s-0.744-0.486-1.296-0.486c-0.32,0-0.648,0.064-0.984,0.192c-0.336,0.128-0.676,0.312-1.02,0.552   l-0.288-0.539c0.808-0.545,1.592-0.816,2.352-0.816c0.784,0,1.4,0.221,1.848,0.66s0.672,1.048,0.672,1.824v2.819   c0,0.224,0.1,0.336,0.3,0.336v0.72c-0.136,0.024-0.24,0.037-0.312,0.037c-0.208,0-0.37-0.053-0.486-0.156   c-0.116-0.104-0.178-0.248-0.186-0.432l-0.024-0.492c-0.288,0.375-0.65,0.664-1.086,0.863   C124.979,89.204,124.509,89.305,124.005,89.305z M124.197,88.68c0.424,0,0.814-0.08,1.17-0.24c0.356-0.159,0.626-0.371,0.81-0.635   c0.072-0.072,0.126-0.15,0.162-0.234c0.036-0.084,0.054-0.162,0.054-0.234v-1.02c-0.272-0.104-0.554-0.184-0.846-0.24   c-0.292-0.057-0.59-0.084-0.894-0.084c-0.576,0-1.044,0.12-1.404,0.359c-0.36,0.24-0.54,0.557-0.54,0.949   c0,0.191,0.038,0.371,0.114,0.539c0.076,0.168,0.18,0.314,0.312,0.438s0.29,0.222,0.474,0.294   C123.792,88.645,123.989,88.68,124.197,88.68z"/>
	<path d="M133.281,83.652c-0.552,0.016-1.032,0.168-1.44,0.455c-0.408,0.289-0.696,0.685-0.864,1.188v3.888h-0.816v-6.252h0.768v1.5   c0.232-0.479,0.544-0.855,0.936-1.127c0.392-0.272,0.812-0.408,1.26-0.408c0.064,0,0.116,0.004,0.156,0.012V83.652z"/>
	<path d="M138.561,88.885c-0.049,0.023-0.119,0.055-0.211,0.096c-0.092,0.039-0.197,0.08-0.317,0.119   c-0.12,0.041-0.257,0.076-0.408,0.108s-0.312,0.048-0.479,0.048c-0.176,0-0.344-0.023-0.504-0.072   c-0.16-0.047-0.3-0.121-0.42-0.222c-0.12-0.1-0.216-0.226-0.288-0.378c-0.072-0.152-0.108-0.328-0.108-0.527V83.58h-0.864v-0.648   h0.864V80.82h0.816v2.111h1.44v0.648h-1.44v4.248c0.016,0.232,0.098,0.402,0.247,0.51c0.147,0.108,0.317,0.162,0.51,0.162   c0.231,0,0.436-0.037,0.611-0.113s0.289-0.131,0.336-0.162L138.561,88.885z"/>
	<path d="M141.26,81.744l-0.539-0.204l0.707-1.116h0.865L141.26,81.744z M140.781,89.184v-6.252h0.815v6.252H140.781z"/>
	<path d="M144.165,86.04c0-0.44,0.076-0.856,0.228-1.248s0.366-0.733,0.642-1.026c0.276-0.291,0.606-0.521,0.99-0.689   c0.385-0.168,0.809-0.252,1.272-0.252c0.592,0,1.108,0.134,1.548,0.402c0.439,0.268,0.771,0.629,0.996,1.086l-0.792,0.252   c-0.177-0.32-0.422-0.57-0.738-0.75c-0.315-0.18-0.665-0.271-1.05-0.271c-0.32,0-0.618,0.064-0.895,0.192   c-0.275,0.128-0.516,0.302-0.719,0.521c-0.205,0.221-0.365,0.482-0.48,0.786c-0.116,0.304-0.174,0.636-0.174,0.996   c0,0.353,0.06,0.685,0.18,0.996s0.283,0.582,0.492,0.81c0.207,0.229,0.449,0.408,0.726,0.541c0.276,0.131,0.57,0.197,0.882,0.197   c0.2,0,0.398-0.027,0.594-0.084c0.196-0.056,0.379-0.134,0.547-0.234c0.168-0.1,0.312-0.213,0.432-0.342   c0.12-0.127,0.204-0.264,0.252-0.408l0.805,0.24c-0.089,0.225-0.217,0.43-0.385,0.618s-0.365,0.353-0.594,0.492   s-0.48,0.248-0.756,0.323c-0.276,0.076-0.563,0.115-0.858,0.115c-0.456,0-0.876-0.086-1.26-0.259   c-0.384-0.172-0.716-0.407-0.996-0.708c-0.28-0.3-0.498-0.646-0.653-1.037C144.243,86.908,144.165,86.488,144.165,86.04z"/>
	<path d="M154.329,89.305c-0.681,0-1.187-0.227-1.519-0.679s-0.498-1.126-0.498-2.022v-3.672h0.815v3.528   c0,1.416,0.484,2.124,1.453,2.124c0.24,0,0.476-0.04,0.707-0.12c0.232-0.079,0.446-0.196,0.643-0.348   c0.195-0.151,0.372-0.332,0.527-0.54c0.156-0.208,0.283-0.443,0.379-0.708v-3.937h0.816v5.196c0,0.224,0.096,0.336,0.287,0.336   v0.72c-0.096,0.017-0.174,0.024-0.234,0.024c-0.06,0-0.102,0-0.125,0c-0.192-0.008-0.349-0.075-0.469-0.204   c-0.119-0.128-0.18-0.3-0.18-0.516v-0.721c-0.271,0.488-0.643,0.867-1.109,1.135C155.354,89.17,154.856,89.305,154.329,89.305z"/>
	<path d="M160.724,80.424h0.815v7.344c0,0.232,0.064,0.414,0.192,0.547c0.128,0.132,0.308,0.197,0.54,0.197   c0.088,0,0.191-0.012,0.313-0.035c0.119-0.024,0.231-0.057,0.336-0.097l0.144,0.66c-0.151,0.063-0.338,0.116-0.558,0.156   c-0.221,0.04-0.41,0.06-0.57,0.06c-0.376,0-0.672-0.105-0.889-0.318c-0.215-0.211-0.323-0.51-0.323-0.894V80.424z"/>
	<path d="M167.816,89.305c-0.456,0-0.872-0.086-1.248-0.259c-0.376-0.172-0.702-0.405-0.978-0.702   c-0.276-0.295-0.49-0.64-0.643-1.031c-0.152-0.393-0.229-0.805-0.229-1.236c0-0.439,0.078-0.855,0.234-1.248   s0.373-0.736,0.648-1.032s0.602-0.532,0.979-0.708c0.375-0.176,0.787-0.264,1.235-0.264s0.862,0.088,1.242,0.264   s0.708,0.412,0.983,0.708c0.276,0.296,0.492,0.64,0.648,1.032s0.234,0.809,0.234,1.248c0,0.432-0.076,0.844-0.229,1.236   c-0.152,0.392-0.365,0.736-0.643,1.031c-0.275,0.297-0.604,0.53-0.983,0.702C168.69,89.219,168.272,89.305,167.816,89.305z    M165.547,86.088c0,0.353,0.061,0.678,0.181,0.979c0.12,0.3,0.282,0.563,0.485,0.791c0.205,0.229,0.444,0.406,0.721,0.535   c0.275,0.127,0.57,0.191,0.882,0.191s0.606-0.066,0.882-0.197c0.276-0.133,0.518-0.313,0.727-0.541   c0.207-0.228,0.371-0.494,0.492-0.798c0.119-0.304,0.18-0.632,0.18-0.983c0-0.344-0.061-0.67-0.18-0.979   c-0.121-0.308-0.285-0.576-0.492-0.804c-0.209-0.228-0.45-0.408-0.727-0.54c-0.275-0.133-0.57-0.198-0.882-0.198   s-0.604,0.065-0.876,0.198c-0.271,0.132-0.512,0.314-0.721,0.546c-0.207,0.231-0.371,0.502-0.491,0.81   C165.608,85.406,165.547,85.736,165.547,86.088z"/>
	<path d="M175.567,89.305c-0.488,0-0.964-0.08-1.428-0.24s-0.863-0.393-1.199-0.696l0.371-0.552c0.352,0.287,0.71,0.504,1.074,0.647   c0.363,0.144,0.754,0.216,1.17,0.216c0.504,0,0.906-0.102,1.206-0.306s0.45-0.493,0.45-0.87c0-0.176-0.04-0.322-0.12-0.438   c-0.08-0.116-0.198-0.219-0.354-0.307c-0.155-0.088-0.352-0.166-0.588-0.234c-0.236-0.067-0.51-0.137-0.822-0.209   c-0.359-0.088-0.672-0.176-0.936-0.264s-0.482-0.188-0.654-0.301c-0.172-0.111-0.299-0.25-0.383-0.414s-0.127-0.369-0.127-0.617   c0-0.313,0.063-0.588,0.186-0.828c0.125-0.24,0.293-0.438,0.505-0.595c0.212-0.155,0.46-0.274,0.743-0.354   c0.285-0.079,0.586-0.119,0.906-0.119c0.48,0,0.916,0.078,1.309,0.234c0.392,0.155,0.708,0.361,0.947,0.617l-0.396,0.48   c-0.231-0.24-0.515-0.42-0.846-0.54c-0.333-0.12-0.679-0.181-1.038-0.181c-0.217,0-0.416,0.022-0.6,0.066   c-0.185,0.045-0.347,0.114-0.486,0.21c-0.141,0.097-0.25,0.218-0.33,0.366s-0.12,0.322-0.12,0.521c0,0.168,0.028,0.305,0.084,0.408   c0.056,0.104,0.147,0.194,0.276,0.271c0.127,0.075,0.289,0.144,0.486,0.204c0.195,0.06,0.434,0.121,0.713,0.186   c0.4,0.096,0.752,0.191,1.057,0.288c0.304,0.097,0.558,0.208,0.762,0.336s0.357,0.284,0.462,0.468   c0.104,0.185,0.156,0.408,0.156,0.672c0,0.576-0.22,1.032-0.66,1.369C176.903,89.137,176.311,89.305,175.567,89.305z"/>
	<path d="M187.987,89.305c-0.527,0-0.994-0.135-1.397-0.402s-0.729-0.606-0.978-1.014v3.852h-0.816v-8.809h0.732v1.213   c0.256-0.393,0.588-0.711,0.996-0.955c0.408-0.243,0.852-0.365,1.332-0.365c0.432,0,0.828,0.09,1.188,0.27s0.672,0.42,0.936,0.721   c0.265,0.3,0.471,0.646,0.619,1.037c0.147,0.393,0.221,0.797,0.221,1.213c0,0.439-0.067,0.855-0.203,1.248   c-0.137,0.392-0.33,0.736-0.582,1.031c-0.252,0.297-0.553,0.53-0.9,0.702C188.786,89.219,188.403,89.305,187.987,89.305z    M187.759,88.584c0.337,0,0.642-0.072,0.919-0.216c0.275-0.144,0.512-0.334,0.707-0.57c0.196-0.235,0.346-0.504,0.45-0.804   c0.104-0.301,0.156-0.609,0.156-0.93c0-0.336-0.06-0.656-0.181-0.961c-0.119-0.303-0.283-0.571-0.492-0.803   c-0.207-0.232-0.453-0.416-0.737-0.553c-0.284-0.136-0.591-0.204-0.918-0.204c-0.208,0-0.427,0.042-0.654,0.126   s-0.44,0.196-0.636,0.336c-0.196,0.141-0.364,0.305-0.504,0.492c-0.141,0.188-0.227,0.387-0.258,0.594v1.92   c0.096,0.225,0.218,0.432,0.365,0.625c0.148,0.191,0.316,0.357,0.504,0.498c0.188,0.139,0.391,0.25,0.606,0.329   C187.303,88.544,187.528,88.584,187.759,88.584z"/>
	<path d="M195.355,89.305c-0.681,0-1.187-0.227-1.519-0.679s-0.498-1.126-0.498-2.022v-3.672h0.816v3.528   c0,1.416,0.484,2.124,1.452,2.124c0.24,0,0.476-0.04,0.708-0.12c0.232-0.079,0.445-0.196,0.643-0.348   c0.195-0.151,0.371-0.332,0.527-0.54s0.282-0.443,0.378-0.708v-3.937h0.816v5.196c0,0.224,0.096,0.336,0.288,0.336v0.72   c-0.096,0.017-0.174,0.024-0.234,0.024s-0.102,0-0.126,0c-0.192-0.008-0.349-0.075-0.468-0.204c-0.12-0.128-0.18-0.3-0.18-0.516   v-0.721c-0.272,0.488-0.643,0.867-1.11,1.135S195.883,89.305,195.355,89.305z"/>
	<path d="M204.775,89.305c-0.496,0-0.95-0.125-1.362-0.373s-0.734-0.567-0.966-0.959v1.211h-0.731v-8.76h0.815v3.816   c0.28-0.424,0.616-0.766,1.009-1.026c0.391-0.26,0.848-0.39,1.367-0.39c0.439,0,0.834,0.092,1.182,0.275   c0.349,0.185,0.645,0.431,0.889,0.738c0.244,0.309,0.432,0.656,0.564,1.045c0.131,0.387,0.197,0.785,0.197,1.193   c0,0.439-0.076,0.855-0.229,1.248c-0.151,0.393-0.359,0.734-0.623,1.025c-0.264,0.293-0.578,0.524-0.942,0.696   C205.581,89.219,205.191,89.305,204.775,89.305z M204.583,88.584c0.344,0,0.658-0.07,0.942-0.21s0.528-0.327,0.731-0.563   c0.205-0.236,0.365-0.504,0.48-0.805c0.116-0.3,0.174-0.609,0.174-0.93c0-0.328-0.054-0.645-0.162-0.948   c-0.107-0.304-0.26-0.573-0.455-0.81c-0.197-0.236-0.433-0.424-0.709-0.564c-0.275-0.14-0.578-0.21-0.906-0.21   c-0.248,0-0.479,0.042-0.695,0.126s-0.416,0.198-0.6,0.342c-0.185,0.145-0.348,0.311-0.492,0.498   c-0.145,0.188-0.264,0.387-0.36,0.594v1.944c0.032,0.216,0.118,0.419,0.259,0.606c0.139,0.188,0.307,0.35,0.504,0.486   c0.195,0.136,0.408,0.244,0.635,0.323C204.157,88.544,204.375,88.584,204.583,88.584z"/>
	<path d="M210.355,80.424h0.815v7.344c0,0.232,0.064,0.414,0.192,0.547c0.128,0.132,0.308,0.197,0.54,0.197   c0.088,0,0.191-0.012,0.313-0.035c0.119-0.024,0.231-0.057,0.336-0.097l0.144,0.66c-0.151,0.063-0.338,0.116-0.558,0.156   c-0.221,0.04-0.41,0.06-0.57,0.06c-0.376,0-0.672-0.105-0.889-0.318c-0.215-0.211-0.323-0.51-0.323-0.894V80.424z"/>
	<path d="M214.783,81.624v-1.2h0.815v1.2H214.783z M214.783,89.184v-6.252h0.815v6.252H214.783z"/>
	<path d="M218.167,86.04c0-0.44,0.076-0.856,0.228-1.248s0.366-0.733,0.642-1.026c0.276-0.291,0.606-0.521,0.99-0.689   c0.385-0.168,0.809-0.252,1.272-0.252c0.592,0,1.108,0.134,1.548,0.402c0.439,0.268,0.771,0.629,0.996,1.086l-0.792,0.252   c-0.177-0.32-0.422-0.57-0.738-0.75c-0.315-0.18-0.665-0.271-1.05-0.271c-0.32,0-0.618,0.064-0.895,0.192   c-0.275,0.128-0.516,0.302-0.719,0.521c-0.205,0.221-0.365,0.482-0.48,0.786c-0.116,0.304-0.174,0.636-0.174,0.996   c0,0.353,0.06,0.685,0.18,0.996s0.283,0.582,0.492,0.81c0.207,0.229,0.449,0.408,0.726,0.541c0.276,0.131,0.57,0.197,0.882,0.197   c0.2,0,0.398-0.027,0.594-0.084c0.196-0.056,0.379-0.134,0.547-0.234c0.168-0.1,0.312-0.213,0.432-0.342   c0.12-0.127,0.204-0.264,0.252-0.408l0.805,0.24c-0.089,0.225-0.217,0.43-0.385,0.618s-0.365,0.353-0.594,0.492   s-0.48,0.248-0.756,0.323c-0.276,0.076-0.563,0.115-0.858,0.115c-0.456,0-0.876-0.086-1.26-0.259   c-0.384-0.172-0.716-0.407-0.996-0.708c-0.28-0.3-0.498-0.646-0.653-1.037C218.245,86.908,218.167,86.488,218.167,86.04z"/>
	<path d="M226.374,81.624v-1.2h0.816v1.2H226.374z M226.374,89.184v-6.252h0.816v6.252H226.374z"/>
	<path d="M233.19,88.885c-0.048,0.023-0.118,0.055-0.21,0.096c-0.092,0.039-0.198,0.08-0.317,0.119   c-0.121,0.041-0.257,0.076-0.408,0.108c-0.152,0.032-0.313,0.048-0.48,0.048c-0.176,0-0.344-0.023-0.504-0.072   c-0.16-0.047-0.3-0.121-0.42-0.222c-0.12-0.1-0.216-0.226-0.288-0.378c-0.071-0.152-0.108-0.328-0.108-0.527V83.58h-0.863v-0.648   h0.863V80.82h0.816v2.111h1.439v0.648h-1.439v4.248c0.016,0.232,0.098,0.402,0.246,0.51c0.148,0.108,0.318,0.162,0.51,0.162   c0.232,0,0.436-0.037,0.612-0.113c0.176-0.076,0.288-0.131,0.336-0.162L233.19,88.885z"/>
	<path d="M236.982,89.305c-0.296,0-0.57-0.051-0.822-0.15s-0.472-0.238-0.659-0.414c-0.189-0.176-0.335-0.383-0.439-0.618   c-0.104-0.235-0.155-0.489-0.155-0.763c0-0.271,0.063-0.523,0.192-0.756c0.127-0.231,0.308-0.432,0.539-0.6   c0.232-0.168,0.508-0.298,0.828-0.39c0.32-0.093,0.672-0.138,1.057-0.138c0.32,0,0.644,0.027,0.972,0.084   c0.328,0.056,0.62,0.136,0.876,0.24v-0.564c0-0.553-0.156-0.99-0.468-1.314s-0.744-0.486-1.296-0.486   c-0.32,0-0.648,0.064-0.984,0.192s-0.676,0.312-1.02,0.552l-0.288-0.539c0.808-0.545,1.592-0.816,2.352-0.816   c0.784,0,1.399,0.221,1.849,0.66c0.447,0.439,0.672,1.048,0.672,1.824v2.819c0,0.224,0.1,0.336,0.3,0.336v0.72   c-0.136,0.024-0.24,0.037-0.312,0.037c-0.209,0-0.371-0.053-0.486-0.156c-0.116-0.104-0.178-0.248-0.186-0.432l-0.025-0.492   c-0.287,0.375-0.649,0.664-1.086,0.863C237.956,89.204,237.486,89.305,236.982,89.305z M237.174,88.68   c0.424,0,0.813-0.08,1.17-0.24c0.355-0.159,0.625-0.371,0.81-0.635c0.071-0.072,0.126-0.15,0.162-0.234s0.054-0.162,0.054-0.234   v-1.02c-0.271-0.104-0.554-0.184-0.846-0.24c-0.293-0.057-0.59-0.084-0.895-0.084c-0.576,0-1.043,0.12-1.404,0.359   c-0.359,0.24-0.539,0.557-0.539,0.949c0,0.191,0.037,0.371,0.113,0.539s0.181,0.314,0.313,0.438s0.29,0.222,0.475,0.294   C236.77,88.645,236.965,88.68,237.174,88.68z"/>
	<path d="M246.27,83.652c-0.553,0.016-1.032,0.168-1.439,0.455c-0.408,0.289-0.697,0.685-0.865,1.188v3.888h-0.815v-6.252h0.769v1.5   c0.231-0.479,0.543-0.855,0.936-1.127c0.393-0.272,0.813-0.408,1.26-0.408c0.064,0,0.116,0.004,0.156,0.012V83.652z"/>
	<path d="M248.562,81.624v-1.2h0.815v1.2H248.562z M248.562,89.184v-6.252h0.815v6.252H248.562z"/>
	<path d="M255.042,89.305c-0.456,0-0.872-0.086-1.248-0.259c-0.376-0.172-0.702-0.405-0.979-0.702   c-0.275-0.295-0.49-0.64-0.642-1.031c-0.151-0.393-0.228-0.805-0.228-1.236c0-0.439,0.078-0.855,0.234-1.248   c0.155-0.393,0.371-0.736,0.647-1.032s0.602-0.532,0.978-0.708c0.377-0.176,0.788-0.264,1.236-0.264   c0.447,0,0.861,0.088,1.242,0.264c0.38,0.176,0.708,0.412,0.984,0.708c0.275,0.296,0.492,0.64,0.647,1.032   c0.156,0.393,0.233,0.809,0.233,1.248c0,0.432-0.076,0.844-0.228,1.236c-0.151,0.392-0.366,0.736-0.642,1.031   c-0.276,0.297-0.604,0.53-0.984,0.702C255.916,89.219,255.498,89.305,255.042,89.305z M252.774,86.088   c0,0.353,0.06,0.678,0.18,0.979c0.12,0.3,0.281,0.563,0.486,0.791c0.203,0.229,0.443,0.406,0.72,0.535   c0.276,0.127,0.569,0.191,0.882,0.191s0.605-0.066,0.882-0.197c0.276-0.133,0.519-0.313,0.726-0.541   c0.209-0.228,0.373-0.494,0.492-0.798c0.121-0.304,0.181-0.632,0.181-0.983c0-0.344-0.06-0.67-0.181-0.979   c-0.119-0.308-0.283-0.576-0.492-0.804c-0.207-0.228-0.449-0.408-0.726-0.54c-0.276-0.133-0.569-0.198-0.882-0.198   s-0.604,0.065-0.876,0.198c-0.272,0.132-0.513,0.314-0.72,0.546c-0.209,0.231-0.372,0.502-0.492,0.81   C252.833,85.406,252.774,85.736,252.774,86.088z"/>
	<path d="M262.793,89.305c-0.488,0-0.965-0.08-1.428-0.24c-0.465-0.16-0.864-0.393-1.2-0.696l0.372-0.552   c0.352,0.287,0.709,0.504,1.074,0.647c0.363,0.144,0.754,0.216,1.17,0.216c0.504,0,0.906-0.102,1.205-0.306   c0.301-0.204,0.451-0.493,0.451-0.87c0-0.176-0.041-0.322-0.121-0.438c-0.08-0.116-0.197-0.219-0.354-0.307   s-0.352-0.166-0.588-0.234c-0.236-0.067-0.51-0.137-0.822-0.209c-0.359-0.088-0.672-0.176-0.936-0.264s-0.482-0.188-0.654-0.301   c-0.172-0.111-0.3-0.25-0.384-0.414s-0.126-0.369-0.126-0.617c0-0.313,0.062-0.588,0.186-0.828s0.292-0.438,0.504-0.595   c0.213-0.155,0.461-0.274,0.744-0.354c0.284-0.079,0.586-0.119,0.906-0.119c0.48,0,0.916,0.078,1.309,0.234   c0.391,0.155,0.707,0.361,0.947,0.617l-0.396,0.48c-0.231-0.24-0.514-0.42-0.846-0.54s-0.678-0.181-1.037-0.181   c-0.217,0-0.416,0.022-0.601,0.066c-0.185,0.045-0.347,0.114-0.485,0.21c-0.141,0.097-0.251,0.218-0.33,0.366   c-0.08,0.148-0.121,0.322-0.121,0.521c0,0.168,0.028,0.305,0.084,0.408c0.057,0.104,0.148,0.194,0.276,0.271   c0.128,0.075,0.29,0.144,0.486,0.204c0.196,0.06,0.434,0.121,0.714,0.186c0.4,0.096,0.752,0.191,1.057,0.288   c0.303,0.097,0.557,0.208,0.762,0.336c0.203,0.128,0.357,0.284,0.461,0.468c0.104,0.185,0.156,0.408,0.156,0.672   c0,0.576-0.22,1.032-0.66,1.369C264.129,89.137,263.538,89.305,262.793,89.305z"/>
</g>
<g>
</g>
<g>
</g>
<g>
</g>
<g>
</g>
<g>
</g>
<g>
</g>
</svg>