<?xml version="1.0" encoding="UTF-8" standalone="no"?>
<!-- Generator: Adobe Fireworks CS6, Export SVG Extension by Aaron Beall (http://fireworks.abeall.com) . Version: 0.6.1  -->
<!DOCTYPE svg PUBLIC "-//W3C//DTD SVG 1.1//EN" "http://www.w3.org/Graphics/SVG/1.1/DTD/svg11.dtd">
<svg id="Untitled-Page%201" viewBox="0 0 176 47" style="background-color:#ffffff00" version="1.1" xmlns="http://www.w3.org/2000/svg" xmlns:xlink="http://www.w3.org/1999/xlink" xml:space="preserve" x="0px" y="0px" width="176px" height="47px">
	<g id="Layer%201">
		<path d="M 176 25.7127 L 170.5642 16.1419 C 171.947 15.6114 173.2836 14.5001 173.8786 13.6038 C 174.1865 13.1437 174.4166 12.6471 174.5694 12.1126 C 174.725 11.5771 174.8008 11.0043 174.8008 10.3956 C 174.8008 9.5239 174.6485 8.7252 174.3433 7.9933 C 174.0347 7.2622 173.5956 6.628 173.02 6.0918 C 172.444 5.5544 171.7637 5.138 170.9753 4.8444 C 170.1868 4.5507 169.3012 4.4045 168.3148 4.4045 L 159.7077 4.4045 L 159.7077 25.7151 L 162.5994 25.7151 L 162.5994 18.4029 L 167.731 16.9737 L 172.5815 25.7167 L 176 25.7127 ZM 162.5994 6.9274 L 167.9699 6.9274 C 168.7498 6.9274 169.4037 7.0927 169.9127 7.3061 C 170.4269 7.5249 170.8354 7.8027 171.1425 8.1453 C 171.4512 8.4898 171.6677 8.8711 171.7902 9.2868 C 171.9108 9.6996 171.9753 10.113 171.9753 10.5174 C 171.9753 11.0235 171.6645 13.0438 168.8779 13.7484 L 162.5994 15.4977 L 162.5994 6.9274 Z" fill="#000000"/>
		<path d="M 44.5252 0 L 2.9673 0 C 1.3308 0 0 1.3174 0 2.9388 L 0 44.0605 C 0 45.6823 1.3308 47 2.9673 47 L 44.5252 47 C 46.1672 47 47.4971 45.6823 47.4971 44.0605 L 47.4971 2.9388 C 47.4971 1.3174 46.1672 0 44.5252 0 ZM 13.0309 20.5369 C 13.0309 20.5369 13.0309 16.4751 16.0283 13.5155 L 24.9354 4.7012 L 32.6505 4.7012 L 21.3708 15.8603 C 21.3708 15.8603 18.9434 18.2645 18.9434 21.7081 L 18.9434 23.5004 L 13.0309 23.5004 L 13.0309 20.5369 ZM 34.4343 26.4631 C 34.4343 26.4631 34.4343 30.5217 31.4399 33.4876 L 22.5321 42.3016 L 14.8148 42.3016 L 26.0999 31.1343 C 26.0999 31.1343 28.5214 28.7324 28.5214 25.2887 L 28.5214 23.5004 L 34.4343 23.5004 L 34.4343 26.4631 ZM 28.5001 18.796 C 28.5001 18.796 26.7168 20.5861 26.7168 22.9112 L 26.7168 23.5004 L 26.7168 25.2865 C 26.7168 25.2865 26.7168 28.2008 24.3405 30.5483 L 12.4687 42.3016 L 4.7484 42.3016 L 18.9979 28.2008 C 18.9979 28.2008 20.7784 26.4115 20.7784 24.0856 L 20.7784 23.5004 L 20.7784 21.7105 C 20.7784 21.7105 20.7784 18.8014 23.1545 16.4506 L 35.0284 4.7012 L 42.7471 4.7012 L 28.5001 18.796 Z" fill="#0086bf"/>
		<path d="M 74.4196 6.9274 L 67.9941 6.9274 L 67.9941 4.4272 L 83.916 4.4272 L 83.916 6.9274 L 77.3077 6.9274 L 77.3077 25.7151 L 74.4196 25.7151 L 74.4196 6.9274 Z" fill="#000000"/>
		<path d="M 103.3494 4.4045 L 106.1765 4.4045 L 106.1765 25.7151 L 103.3494 25.7151 L 103.3494 4.4045 Z" fill="#000000"/>
		<path d="M 118.4209 23.4326 C 119.3237 23.4326 120.1799 23.332 121.0009 23.1306 C 121.8192 22.9248 122.5891 22.6608 123.3069 22.3403 L 123.81 22.1209 L 124.8499 24.4226 L 124.4424 24.6523 C 123.9517 24.9355 123.4225 25.1643 122.8615 25.3511 C 122.2944 25.5321 121.7344 25.6753 121.1697 25.7719 C 120.6083 25.8771 120.0521 25.9445 119.4953 25.9877 C 118.9399 26.0315 118.4209 26.0499 117.9279 26.0499 C 116.4962 26.0499 115.2091 25.8373 114.0716 25.4105 C 112.9313 24.9861 111.9753 24.3368 111.1985 23.4648 C 110.4166 22.5934 109.8171 21.4867 109.4005 20.1481 C 108.9731 18.8098 108.7697 17.2176 108.7697 15.3717 C 108.7697 13.6716 108.9905 12.125 109.4426 10.7355 C 109.8897 9.3478 110.5278 8.1638 111.3476 7.1763 C 112.17 6.1933 113.1575 5.4353 114.3182 4.9114 C 115.4751 4.3833 116.746 4.1183 118.142 4.1183 C 119.0214 4.1183 119.9339 4.1963 120.8816 4.3478 C 121.8192 4.5012 122.8182 4.8384 123.8591 5.3655 L 124.2686 5.5714 L 123.1088 7.8557 L 122.7515 7.6806 C 121.3177 7.0518 119.8232 6.7383 118.2661 6.7383 C 117.0962 6.7383 116.1031 6.9766 115.2691 7.465 C 114.4393 7.9529 113.7523 8.5953 113.2058 9.3968 C 112.6665 10.1978 112.2738 11.121 112.0224 12.1662 C 111.7829 13.2098 111.6568 14.2791 111.6568 15.3717 C 111.6568 16.4883 111.7617 17.5311 111.9822 18.507 C 112.1972 19.4795 112.5637 20.3319 113.0865 21.0607 C 113.6096 21.7893 114.3051 22.3684 115.1759 22.7952 C 116.0426 23.2212 117.1306 23.4326 118.4209 23.4326 L 118.4209 23.4326 Z" fill="#000000"/>
		<path d="M 126.2319 4.4272 L 129.0035 4.4272 L 129.0035 15.887 L 132.227 11.8739 L 138.2319 4.4272 L 141.8004 4.4272 L 135.5755 11.9981 L 143.3646 25.7151 L 139.9377 25.7151 L 133.6094 14.308 L 129.0035 19.967 L 129.0035 25.7151 L 126.2319 25.7151 L 126.2319 4.4272 Z" fill="#000000"/>
		<path d="M 157.9991 25.7259 L 148.8679 25.7259 C 147.863 25.7259 147.0303 25.5831 146.3615 25.2995 C 145.6993 25.0167 145.1648 24.6424 144.7662 24.172 C 144.3666 23.7074 144.0837 23.1602 143.921 22.5336 C 143.7568 21.9047 143.6758 21.2353 143.6758 20.5217 L 143.6758 9.6374 C 143.6758 8.9463 143.7693 8.2819 143.9487 7.6421 C 144.1342 7.0058 144.4355 6.4474 144.8555 5.9689 C 145.2737 5.4948 145.8194 5.1174 146.4692 4.8277 C 147.1248 4.5445 147.9238 4.4045 148.8679 4.4045 L 157.9991 4.4045 L 157.9991 6.9274 L 148.8984 6.9304 C 148.0398 6.9304 147.4175 7.1162 147.0412 7.4942 C 146.6586 7.8691 146.4692 8.4493 146.4692 9.2405 L 146.4692 13.194 L 156.7951 13.194 L 156.7951 15.5982 L 146.4692 15.5982 L 146.4692 20.8867 C 146.4692 21.5779 146.6561 22.1313 147.025 22.5452 C 147.3951 22.9628 148.0178 23.167 148.8984 23.167 L 157.9991 23.167 L 157.9991 23.167 " fill="#000000"/>
		<path d="M 67.3996 17.6257 C 67.0408 16.956 66.5648 16.3786 65.9736 15.8906 C 65.3818 15.4039 64.6969 14.9831 63.9143 14.6291 C 63.1429 14.2713 62.3271 13.9357 61.4646 13.6092 C 60.5436 13.2439 59.7496 12.918 59.0763 12.6385 C 58.4001 12.3551 57.8436 12.0609 57.4015 11.7532 C 56.9651 11.4507 56.6327 11.1124 56.4067 10.7541 C 56.2078 10.4263 56.1024 10.0446 56.0804 9.6104 C 56.1268 8.8594 56.4598 8.2334 57.0853 7.7371 C 57.7617 7.202 58.7159 6.9298 59.946 6.9298 C 59.9493 6.9298 59.9511 6.9274 59.9539 6.9274 L 66.6869 6.9274 L 66.6869 4.4045 L 60.0847 4.4045 C 60.0685 4.4045 60.0523 4.4031 60.0363 4.4031 C 60.0229 4.4031 60.0107 4.4045 59.9969 4.4045 L 59.9086 4.4045 C 59.9086 4.4055 59.9086 4.4061 59.9086 4.4071 C 57.7364 4.4272 56.0759 4.9423 54.9364 5.9583 C 54.0205 6.7654 53.4689 7.7674 53.269 8.9595 C 53.2222 9.2367 53.1956 9.5255 53.188 9.825 C 53.1932 10.0037 53.2054 10.18 53.2271 10.3491 C 53.2883 10.8376 53.4123 11.2877 53.6112 11.6924 C 53.8965 12.2815 54.3228 12.8138 54.8869 13.2889 C 55.4492 13.7688 56.1584 14.2089 57.0091 14.613 C 57.8537 15.0182 58.8469 15.4263 59.9757 15.8278 C 60.8163 16.1327 61.5548 16.4323 62.1882 16.7296 C 62.821 17.0204 63.3503 17.3371 63.7729 17.6709 C 64.1898 18.0057 64.5088 18.368 64.7219 18.7645 C 64.9404 19.1606 65.0434 19.622 65.0434 20.1481 C 65.0434 21.2441 64.6098 22.0805 63.74 22.6556 C 62.8672 23.2352 61.6555 23.5248 60.0987 23.5248 C 59.1526 23.5248 58.1164 23.3994 56.9791 23.1462 C 55.8418 22.8926 54.7373 22.5304 53.6738 22.0673 C 53.4481 21.9653 53.3385 21.9187 53.3385 21.9187 L 52.2471 24.2982 C 52.2471 24.2982 52.3399 24.3472 52.5692 24.4664 C 53.1803 24.7735 53.8236 25.0275 54.483 25.2289 C 55.1513 25.4323 55.825 25.5947 56.5014 25.7155 C 57.1785 25.8373 57.8436 25.9237 58.4954 25.9749 C 59.1526 26.0227 59.7792 26.0499 60.374 26.0499 C 61.4385 26.0499 62.4314 25.9269 63.3582 25.6869 C 64.2798 25.4403 65.0762 25.0679 65.7521 24.5606 C 66.4295 24.0532 66.9636 23.425 67.3504 22.6748 C 67.7428 21.9237 67.9347 21.0435 67.9347 20.0241 C 67.9347 19.0954 67.7547 18.2944 67.3996 17.6257 Z" fill="#000000"/>
		<path d="M 101.5771 25.7127 L 96.1417 16.1419 C 97.5242 15.6114 98.8609 14.5001 99.4564 13.6038 C 99.7633 13.1437 99.9943 12.6471 100.1471 12.1126 C 100.3021 11.5771 100.3779 11.0043 100.3779 10.3956 C 100.3779 9.5239 100.2255 8.7252 99.9205 7.9933 C 99.6121 7.2622 99.1731 6.628 98.5975 6.0918 C 98.0213 5.5544 97.3408 5.138 96.5519 4.8444 C 95.7639 4.5507 94.8784 4.4045 93.8929 4.4045 L 85.2848 4.4045 L 85.2848 25.7151 L 88.1766 25.7151 L 88.1766 18.4029 L 93.3088 16.9737 L 98.1591 25.7167 L 101.5771 25.7127 ZM 88.1766 6.9274 L 93.5472 6.9274 C 94.3271 6.9274 94.9801 7.0927 95.4899 7.3061 C 96.0046 7.5249 96.4129 7.8027 96.7197 8.1453 C 97.0289 8.4898 97.2445 8.8711 97.3679 9.2868 C 97.4879 9.6996 97.5528 10.113 97.5528 10.5174 C 97.5528 11.0235 97.2418 13.0438 94.4552 13.7484 L 88.1766 15.4977 L 88.1766 6.9274 Z" fill="#000000"/>
		<g>
			<path d="M 69.9528 31.6453 L 69.9528 37.957 C 69.9528 38.716 70.0048 39.3617 70.0966 39.8921 C 70.1953 40.4227 70.3794 40.8585 70.6581 41.1929 C 70.9317 41.529 71.3269 41.7766 71.8438 41.9354 C 72.3598 42.0914 73.0405 42.172 73.8951 42.172 C 73.9789 42.172 74.1178 42.172 74.3089 42.1644 C 74.4987 42.1592 74.7161 42.1504 74.9636 42.126 C 75.2056 42.1046 75.4723 42.0754 75.7609 42.0376 C 76.0462 42.0032 76.3288 41.957 76.6068 41.9 L 76.6068 31.6453 L 77.399 31.6453 L 77.399 42.4312 C 77.0045 42.6158 76.2559 42.7236 75.9998 42.7482 C 75.7444 42.7746 75.4858 42.7994 75.2252 42.8208 C 74.9636 42.84 74.7161 42.8536 74.4848 42.8668 C 74.2481 42.8776 74.047 42.8828 73.8788 42.8828 C 72.9914 42.8828 72.2514 42.8102 71.6529 42.6622 C 71.0516 42.5138 70.5626 42.2576 70.1953 41.898 C 69.8198 41.5318 69.553 41.0477 69.3895 40.4361 C 69.2212 39.8251 69.1396 39.0525 69.1396 38.1192 L 69.1396 31.6453 L 69.1396 31.6453 " fill="#000000"/>
			<path d="M 53.2095 31.6453 L 57.4813 31.6453 C 57.9609 31.6453 58.4003 31.7226 58.7925 31.8738 C 59.1883 32.0276 59.5204 32.241 59.7906 32.5182 C 60.0667 32.803 60.2736 33.131 60.4207 33.5198 C 60.573 33.904 60.6474 34.3243 60.6474 34.7933 C 60.6474 35.0877 60.601 35.4223 60.5051 35.7869 C 60.407 36.1589 60.2327 36.5075 59.9757 36.8254 C 59.7197 37.1464 59.3765 37.4192 58.9368 37.641 C 58.498 37.8588 57.9412 37.9722 57.2732 37.9722 L 54.0086 37.9722 L 54.0086 42.7336 L 53.2095 42.7336 L 53.2095 31.6453 ZM 54.0086 37.2634 L 57.2606 37.2634 C 57.6094 37.2634 57.9359 37.211 58.2495 37.109 C 58.5579 37.0092 58.8254 36.8556 59.0595 36.651 C 59.2841 36.4477 59.4638 36.1869 59.6006 35.8809 C 59.7328 35.5731 59.7993 35.2205 59.7993 34.8161 C 59.7993 34.5403 59.7576 34.2623 59.6704 33.9734 C 59.5861 33.6906 59.4475 33.4304 59.2556 33.1964 C 59.0652 32.9646 58.809 32.7748 58.4867 32.6268 C 58.1681 32.478 57.7669 32.4022 57.2872 32.4022 L 54.0086 32.4022 L 54.0086 37.2634 Z" fill="#000000"/>
			<path d="M 86.3079 42.7336 L 81.6202 42.7336 C 81.1728 42.7336 80.7897 42.6764 80.4849 42.5556 C 80.1764 42.436 79.9238 42.2636 79.7356 42.0424 C 79.5416 41.8206 79.4081 41.556 79.3289 41.2575 C 79.2467 40.9551 79.2031 40.6317 79.2031 40.2831 L 79.2031 31.6453 L 80.0218 31.6453 L 80.0218 40.3465 C 80.0218 40.8841 80.1526 41.2941 80.4144 41.5752 C 80.6762 41.8532 81.096 41.994 81.6852 41.994 L 86.3079 41.994 L 86.3079 41.994 " fill="#000000"/>
			<path d="M 101.6896 42.7336 L 101.6896 32.3516 L 98.1857 32.3516 L 98.1857 31.6453 L 106.1354 31.6453 L 106.1354 32.3516 L 102.5021 32.3516 L 102.5021 42.7336 L 102.5021 42.7336 " fill="#000000"/>
			<path d="M 116.0915 42.7336 L 116.0915 31.6453 L 116.9097 31.6453 L 116.9097 42.7336 L 116.9097 42.7336 " fill="#000000"/>
			<path d="M 123.1282 42.1668 C 123.6083 42.1668 124.082 42.1128 124.5596 42.0016 C 125.0311 41.8888 125.4952 41.7212 125.9432 41.4838 L 126.0908 41.4082 L 126.4419 42.0746 L 126.3137 42.1528 C 126.0219 42.323 125.73 42.4544 125.4319 42.5556 C 125.132 42.6542 124.8413 42.7336 124.5527 42.785 C 124.2629 42.8384 123.9868 42.8732 123.7184 42.887 C 123.4557 42.9066 123.2097 42.9106 123.0013 42.9106 C 122.2944 42.9106 121.6667 42.8034 121.1154 42.5868 C 120.559 42.3718 120.0842 42.0316 119.6929 41.5752 C 119.2938 41.1147 118.9935 40.5363 118.7859 39.8431 C 118.5795 39.1463 118.476 38.3124 118.476 37.3408 C 118.476 36.4263 118.582 35.6029 118.8029 34.8799 C 119.0214 34.1567 119.335 33.5474 119.736 33.0444 C 120.1451 32.543 120.6249 32.1592 121.192 31.896 C 121.7596 31.6337 122.3867 31.5017 123.0795 31.5017 C 123.5374 31.5017 124.0115 31.5443 124.4935 31.6253 C 124.9811 31.7122 125.4952 31.896 126.0364 32.1808 L 126.1873 32.263 L 125.8168 32.9128 L 125.6866 32.8478 C 125.2065 32.5996 124.7559 32.4428 124.3387 32.3656 C 123.9142 32.2862 123.4995 32.2438 123.0962 32.2438 C 122.4354 32.2438 121.8682 32.3814 121.3839 32.6562 C 120.9083 32.9314 120.5107 33.2988 120.1996 33.7632 C 119.8932 34.2297 119.6623 34.7693 119.5151 35.3903 C 119.3643 36.0023 119.2913 36.6558 119.2913 37.3408 C 119.2913 38.0698 119.3587 38.734 119.5066 39.3277 C 119.6473 39.9245 119.8766 40.4289 120.1835 40.8489 C 120.4933 41.2631 120.8909 41.5868 121.3766 41.8206 C 121.8626 42.053 122.4459 42.1668 123.1282 42.1668 L 123.1282 42.1668 Z" fill="#000000"/>
			<path d="M 128.0978 38.5788 L 129.5964 36.6774 L 133.6514 31.6453 L 134.6535 31.6453 L 131.5667 35.4733 L 135.6087 42.7336 L 134.6317 42.7336 L 131.0109 36.1701 L 128.0978 39.7805 L 128.0978 42.7336 L 127.296 42.7336 L 127.296 31.6453 L 128.0978 31.6453 L 128.0978 38.5788 Z" fill="#000000"/>
			<path d="M 143.1163 42.7336 L 138.4995 42.7336 C 138.0356 42.7336 137.6534 42.6764 137.3432 42.5556 C 137.0323 42.436 136.7864 42.2636 136.6011 42.0498 C 136.4165 41.8316 136.2793 41.5752 136.2001 41.2729 C 136.1206 40.9735 136.0811 40.6467 136.0811 40.3017 L 136.0811 34.0977 C 136.0811 33.7464 136.1206 33.422 136.2078 33.1234 C 136.2903 32.8238 136.4321 32.5618 136.6233 32.3384 C 136.8139 32.1198 137.0677 31.946 137.3758 31.8223 C 137.6862 31.7039 138.0625 31.6453 138.5129 31.6453 L 143.1163 31.6453 L 143.1163 32.3516 L 138.5237 32.3516 C 137.9502 32.3516 137.5366 32.5182 137.2793 32.788 C 137.0242 33.0588 136.8953 33.4552 136.8953 33.9808 L 136.8953 36.4669 L 142.4593 36.4669 L 142.4593 37.182 L 136.8953 37.182 L 136.8953 40.4091 C 136.8953 40.8841 137.0158 41.2682 137.2448 41.556 C 137.4835 41.8508 137.9087 41.994 138.5258 41.994 L 143.1163 41.994 L 143.1163 41.994 " fill="#000000"/>
			<path d="M 154.4799 41.5668 L 153.6514 44.6197 L 153.0138 44.6197 L 153.3198 41.5668 L 154.4799 41.5668 Z" fill="#000000"/>
			<path d="M 97.7818 38.775 C 97.6282 38.4368 97.3995 38.138 97.1019 37.8788 C 96.8027 37.6196 96.4371 37.3902 95.9985 37.1904 C 95.5607 36.9874 95.0601 36.7994 94.4922 36.6204 C 94.0157 36.4593 93.5881 36.3157 93.2097 36.1869 C 92.8349 36.0489 92.5071 35.8981 92.2455 35.7255 C 91.9888 35.5523 91.7869 35.3473 91.6525 35.1179 C 91.5309 34.9005 91.468 34.6337 91.4579 34.3183 C 91.468 34.012 91.5365 33.7372 91.6719 33.499 C 91.8142 33.237 92.0101 33.0236 92.2564 32.8588 C 92.5018 32.6838 92.7848 32.5598 93.1073 32.4736 C 93.4072 32.3946 93.7357 32.354 94.0702 32.3516 L 97.3964 32.3516 L 97.3964 31.6453 C 97.3964 31.6453 93.9116 31.6421 93.9116 31.6453 C 93.4451 31.6605 93.0243 31.7251 92.6481 31.845 C 92.2188 31.979 91.8522 32.1732 91.5519 32.419 C 91.252 32.6678 91.0262 32.9646 90.8655 33.2984 C 90.7164 33.6188 90.6381 33.9682 90.6288 34.3537 C 90.6381 34.7227 90.6973 35.0509 90.8134 35.3281 C 90.9443 35.6333 91.1489 35.8949 91.4209 36.1215 C 91.7003 36.348 92.0573 36.553 92.4967 36.7396 C 92.9331 36.9282 93.462 37.1066 94.0775 37.2848 C 94.6232 37.4436 95.0925 37.614 95.4899 37.7946 C 95.8833 37.973 96.2053 38.1736 96.4565 38.3886 C 96.7043 38.6044 96.8921 38.8423 97.0014 39.1107 C 97.1239 39.3761 97.1812 39.6679 97.1812 39.9963 C 97.1812 40.0225 97.1783 40.0445 97.1771 40.0697 C 97.1667 40.4497 97.0772 40.7749 96.9001 41.0441 C 96.718 41.3276 96.4741 41.5508 96.1728 41.724 C 95.8724 41.894 95.5428 42.0128 95.1739 42.0854 C 94.8062 42.1612 94.4379 42.1986 94.0775 42.1986 C 93.8358 42.1986 93.5634 42.1826 93.2629 42.1528 C 92.9647 42.1184 92.6602 42.073 92.3521 42.0016 C 92.0441 41.9346 91.7372 41.8508 91.433 41.7484 C 91.1274 41.6486 90.8522 41.5354 90.5916 41.405 L 90.4558 41.3372 L 90.129 42.0208 L 90.241 42.0854 C 90.5486 42.2524 90.8755 42.3932 91.222 42.5014 C 91.5681 42.6074 91.9127 42.698 92.2564 42.7578 C 92.5986 42.8168 92.9266 42.86 93.2399 42.8792 C 93.5511 42.9038 93.8264 42.9106 94.0609 42.9106 C 95.3309 42.9106 96.3098 42.6478 96.9905 42.1098 C 97.6488 41.5944 97.9897 40.8969 98.0099 40.0285 C 98.0108 40.0011 98.0135 39.9755 98.0135 39.9483 C 98.0135 39.5061 97.9358 39.1147 97.7818 38.775 Z" fill="#000000"/>
			<path d="M 114.9983 42.7336 L 112.0538 37.5238 L 112.4391 37.3762 C 113.1462 37.1062 113.8129 36.5303 114.0809 36.1255 C 114.2292 35.9041 114.3408 35.6627 114.4138 35.4079 C 114.4883 35.1475 114.5264 34.8651 114.5264 34.5655 C 114.5264 34.1332 114.4529 33.748 114.3038 33.3874 C 114.1542 33.034 113.9406 32.7256 113.6653 32.4704 C 113.3856 32.2104 113.0498 32.005 112.6665 31.863 C 112.2795 31.7183 111.8331 31.6453 111.3392 31.6453 L 109.2662 31.6453 L 106.9912 31.6453 L 106.9912 42.7336 L 107.8554 42.7336 L 107.8554 38.675 L 111.197 37.7452 L 113.962 42.7336 L 114.9983 42.7336 ZM 107.8554 37.8242 L 107.8554 32.3468 L 111.1529 32.3468 C 111.6362 32.3468 112.0284 32.4138 112.3525 32.5498 C 112.6807 32.6886 112.9499 32.874 113.1534 33.1006 C 113.3569 33.3284 113.5016 33.5844 113.5831 33.8596 C 113.6601 34.1239 113.6991 34.3837 113.6991 34.6325 C 113.6991 35.2321 113.2852 36.3508 111.7354 36.742 L 107.8554 37.8242 Z" fill="#000000"/>
			<path d="M 68.8199 42.7336 L 64.8767 31.6453 L 63.869 31.6453 L 59.8193 42.7336 L 60.7386 42.7336 L 61.7329 39.9377 L 66.9118 39.9377 L 67.9059 42.7336 L 68.8199 42.7336 ZM 61.973 39.2257 L 63.4395 34.9663 L 64.3234 32.4508 L 64.3833 32.4508 L 65.2483 35.0179 L 66.6881 39.2257 L 61.973 39.2257 Z" fill="#000000"/>
			<path d="M 152.117 42.7336 L 149.1729 37.5238 L 149.5579 37.3762 C 150.2656 37.1062 150.9316 36.5303 151.1996 36.1255 C 151.3488 35.9041 151.4592 35.6627 151.5333 35.4079 C 151.6075 35.1475 151.6455 34.8651 151.6455 34.5655 C 151.6455 34.1332 151.5729 33.748 151.4225 33.3874 C 151.2738 33.034 151.0589 32.7256 150.7849 32.4704 C 150.5047 32.2104 150.1684 32.005 149.7864 31.863 C 149.3981 31.7183 148.9517 31.6453 148.4579 31.6453 L 146.3857 31.6453 L 144.1103 31.6453 L 144.1103 42.7336 L 144.9745 42.7336 L 144.9745 38.675 L 148.3165 37.7452 L 151.0816 42.7336 L 152.117 42.7336 ZM 144.9745 37.8242 L 144.9745 32.3468 L 148.2728 32.3468 C 148.7549 32.3468 149.1476 32.4138 149.4716 32.5498 C 149.7998 32.6886 150.0694 32.874 150.2721 33.1006 C 150.4761 33.3284 150.6204 33.5844 150.703 33.8596 C 150.7784 34.1239 150.8174 34.3837 150.8174 34.6325 C 150.8174 35.2321 150.4047 36.3508 148.8541 36.742 L 144.9745 37.8242 Z" fill="#000000"/>
			<path d="M 166.5705 38.775 C 166.4177 38.4368 166.1887 38.138 165.8906 37.8788 C 165.5918 37.6196 165.2266 37.3902 164.7872 37.1904 C 164.3499 36.9874 163.8488 36.7994 163.2805 36.6204 C 162.8049 36.4593 162.3764 36.3157 161.9985 36.1869 C 161.624 36.0489 161.2961 35.8981 161.0346 35.7255 C 160.7775 35.5523 160.5751 35.3473 160.442 35.1179 C 160.3199 34.9005 160.2567 34.6337 160.2469 34.3183 C 160.2567 34.012 160.3251 33.7372 160.461 33.499 C 160.6037 33.237 160.7996 33.0236 161.046 32.8588 C 161.2907 32.6838 161.5742 32.5598 161.8964 32.4736 C 162.1964 32.3946 162.5247 32.354 162.8588 32.3516 L 166.1854 32.3516 L 166.1854 31.6453 C 166.1854 31.6453 162.7006 31.6421 162.7006 31.6453 C 162.2337 31.6605 161.8129 31.7251 161.4368 31.845 C 161.0075 31.979 160.6405 32.1732 160.3409 32.419 C 160.0414 32.6678 159.8152 32.9646 159.6542 33.2984 C 159.5062 33.6188 159.4276 33.9682 159.4183 34.3537 C 159.4268 34.7227 159.4865 35.0509 159.6028 35.3281 C 159.733 35.6333 159.9383 35.8949 160.2104 36.1215 C 160.4893 36.348 160.8469 36.553 161.2854 36.7396 C 161.7214 36.9282 162.2507 37.1066 162.8661 37.2848 C 163.4128 37.4436 163.8811 37.614 164.2784 37.7946 C 164.6724 37.973 164.9944 38.1736 165.2455 38.3886 C 165.4934 38.6044 165.6814 38.8423 165.7905 39.1107 C 165.913 39.3761 165.9697 39.6679 165.9697 39.9963 C 165.9697 40.0225 165.9665 40.0445 165.9659 40.0697 C 165.955 40.4497 165.8658 40.7749 165.6888 41.0441 C 165.5075 41.3276 165.2635 41.5508 164.9619 41.724 C 164.6615 41.894 164.3307 42.0128 163.963 42.0854 C 163.5954 42.1612 163.2265 42.1986 162.8661 42.1986 C 162.6244 42.1986 162.3518 42.1826 162.0512 42.1528 C 161.7534 42.1184 161.4493 42.073 161.1411 42.0016 C 160.8326 41.9346 160.5267 41.8508 160.2213 41.7484 C 159.9157 41.6486 159.6407 41.5354 159.3802 41.405 L 159.2449 41.3372 L 158.9177 42.0208 L 159.03 42.0854 C 159.3373 42.2524 159.6645 42.3932 160.0112 42.5014 C 160.3575 42.6074 160.7021 42.698 161.046 42.7578 C 161.3876 42.8168 161.7155 42.86 162.029 42.8792 C 162.3398 42.9038 162.6159 42.9106 162.8495 42.9106 C 164.1207 42.9106 165.0976 42.6478 165.78 42.1098 C 166.4383 41.5944 166.7784 40.8969 166.799 40.0285 C 166.7994 40.0011 166.8027 39.9755 166.8027 39.9483 C 166.8027 39.5061 166.7253 39.1147 166.5705 38.775 Z" fill="#000000"/>
			<path d="M 175.9218 42.7336 L 171.9786 31.6453 L 170.9704 31.6453 L 166.9207 42.7336 L 167.8405 42.7336 L 168.8345 39.9377 L 174.0132 39.9377 L 175.0071 42.7336 L 175.9218 42.7336 ZM 169.0744 39.2257 L 170.5411 34.9663 L 171.425 32.4508 L 171.4848 32.4508 L 172.3493 35.0179 L 173.7887 39.2257 L 169.0744 39.2257 Z" fill="#000000"/>
		</g>
		<g opacity="0.4">
			<path d="M 69.9528 31.6453 L 69.9528 37.957 C 69.9528 38.716 70.0048 39.3617 70.0966 39.8921 C 70.1953 40.4227 70.3794 40.8585 70.6581 41.1929 C 70.9317 41.529 71.3269 41.7766 71.8438 41.9354 C 72.3598 42.0914 73.0405 42.172 73.8951 42.172 C 73.9789 42.172 74.1178 42.172 74.3089 42.1644 C 74.4987 42.1592 74.7161 42.1504 74.9636 42.126 C 75.2056 42.1046 75.4723 42.0754 75.7609 42.0376 C 76.0462 42.0032 76.3288 41.957 76.6068 41.9 L 76.6068 31.6453 L 77.399 31.6453 L 77.399 42.4312 C 77.0045 42.6158 76.2559 42.7236 75.9998 42.7482 C 75.7444 42.7746 75.4858 42.7994 75.2252 42.8208 C 74.9636 42.84 74.7161 42.8536 74.4848 42.8668 C 74.2481 42.8776 74.047 42.8828 73.8788 42.8828 C 72.9914 42.8828 72.2514 42.8102 71.6529 42.6622 C 71.0516 42.5138 70.5626 42.2576 70.1953 41.898 C 69.8198 41.5318 69.553 41.0477 69.3895 40.4361 C 69.2212 39.8251 69.1396 39.0525 69.1396 38.1192 L 69.1396 31.6453 L 69.1396 31.6453 " fill="#000000"/>
			<path d="M 53.2095 31.6453 L 57.4813 31.6453 C 57.9609 31.6453 58.4003 31.7226 58.7925 31.8738 C 59.1883 32.0276 59.5204 32.241 59.7906 32.5182 C 60.0667 32.803 60.2736 33.131 60.4207 33.5198 C 60.573 33.904 60.6474 34.3243 60.6474 34.7933 C 60.6474 35.0877 60.601 35.4223 60.5051 35.7869 C 60.407 36.1589 60.2327 36.5075 59.9757 36.8254 C 59.7197 37.1464 59.3765 37.4192 58.9368 37.641 C 58.498 37.8588 57.9412 37.9722 57.2732 37.9722 L 54.0086 37.9722 L 54.0086 42.7336 L 53.2095 42.7336 L 53.2095 31.6453 ZM 54.0086 37.2634 L 57.2606 37.2634 C 57.6094 37.2634 57.9359 37.211 58.2495 37.109 C 58.5579 37.0092 58.8254 36.8556 59.0595 36.651 C 59.2841 36.4477 59.4638 36.1869 59.6006 35.8809 C 59.7328 35.5731 59.7993 35.2205 59.7993 34.8161 C 59.7993 34.5403 59.7576 34.2623 59.6704 33.9734 C 59.5861 33.6906 59.4475 33.4304 59.2556 33.1964 C 59.0652 32.9646 58.809 32.7748 58.4867 32.6268 C 58.1681 32.478 57.7669 32.4022 57.2872 32.4022 L 54.0086 32.4022 L 54.0086 37.2634 Z" fill="#000000"/>
			<path d="M 86.3079 42.7336 L 81.6202 42.7336 C 81.1728 42.7336 80.7897 42.6764 80.4849 42.5556 C 80.1764 42.436 79.9238 42.2636 79.7356 42.0424 C 79.5416 41.8206 79.4081 41.556 79.3289 41.2575 C 79.2467 40.9551 79.2031 40.6317 79.2031 40.2831 L 79.2031 31.6453 L 80.0218 31.6453 L 80.0218 40.3465 C 80.0218 40.8841 80.1526 41.2941 80.4144 41.5752 C 80.6762 41.8532 81.096 41.994 81.6852 41.994 L 86.3079 41.994 L 86.3079 41.994 " fill="#000000"/>
			<path d="M 101.6896 42.7336 L 101.6896 32.3516 L 98.1857 32.3516 L 98.1857 31.6453 L 106.1354 31.6453 L 106.1354 32.3516 L 102.5021 32.3516 L 102.5021 42.7336 L 102.5021 42.7336 " fill="#000000"/>
			<path d="M 116.0915 42.7336 L 116.0915 31.6453 L 116.9097 31.6453 L 116.9097 42.7336 L 116.9097 42.7336 " fill="#000000"/>
			<path d="M 123.1282 42.1668 C 123.6083 42.1668 124.082 42.1128 124.5596 42.0016 C 125.0311 41.8888 125.4952 41.7212 125.9432 41.4838 L 126.0908 41.4082 L 126.4419 42.0746 L 126.3137 42.1528 C 126.0219 42.323 125.73 42.4544 125.4319 42.5556 C 125.132 42.6542 124.8413 42.7336 124.5527 42.785 C 124.2629 42.8384 123.9868 42.8732 123.7184 42.887 C 123.4557 42.9066 123.2097 42.9106 123.0013 42.9106 C 122.2944 42.9106 121.6667 42.8034 121.1154 42.5868 C 120.559 42.3718 120.0842 42.0316 119.6929 41.5752 C 119.2938 41.1147 118.9935 40.5363 118.7859 39.8431 C 118.5795 39.1463 118.476 38.3124 118.476 37.3408 C 118.476 36.4263 118.582 35.6029 118.8029 34.8799 C 119.0214 34.1567 119.335 33.5474 119.736 33.0444 C 120.1451 32.543 120.6249 32.1592 121.192 31.896 C 121.7596 31.6337 122.3867 31.5017 123.0795 31.5017 C 123.5374 31.5017 124.0115 31.5443 124.4935 31.6253 C 124.9811 31.7122 125.4952 31.896 126.0364 32.1808 L 126.1873 32.263 L 125.8168 32.9128 L 125.6866 32.8478 C 125.2065 32.5996 124.7559 32.4428 124.3387 32.3656 C 123.9142 32.2862 123.4995 32.2438 123.0962 32.2438 C 122.4354 32.2438 121.8682 32.3814 121.3839 32.6562 C 120.9083 32.9314 120.5107 33.2988 120.1996 33.7632 C 119.8932 34.2297 119.6623 34.7693 119.5151 35.3903 C 119.3643 36.0023 119.2913 36.6558 119.2913 37.3408 C 119.2913 38.0698 119.3587 38.734 119.5066 39.3277 C 119.6473 39.9245 119.8766 40.4289 120.1835 40.8489 C 120.4933 41.2631 120.8909 41.5868 121.3766 41.8206 C 121.8626 42.053 122.4459 42.1668 123.1282 42.1668 L 123.1282 42.1668 Z" fill="#000000"/>
			<path d="M 128.0978 38.5788 L 129.5964 36.6774 L 133.6514 31.6453 L 134.6535 31.6453 L 131.5667 35.4733 L 135.6087 42.7336 L 134.6317 42.7336 L 131.0109 36.1701 L 128.0978 39.7805 L 128.0978 42.7336 L 127.296 42.7336 L 127.296 31.6453 L 128.0978 31.6453 L 128.0978 38.5788 Z" fill="#000000"/>
			<path d="M 143.1163 42.7336 L 138.4995 42.7336 C 138.0356 42.7336 137.6534 42.6764 137.3432 42.5556 C 137.0323 42.436 136.7864 42.2636 136.6011 42.0498 C 136.4165 41.8316 136.2793 41.5752 136.2001 41.2729 C 136.1206 40.9735 136.0811 40.6467 136.0811 40.3017 L 136.0811 34.0977 C 136.0811 33.7464 136.1206 33.422 136.2078 33.1234 C 136.2903 32.8238 136.4321 32.5618 136.6233 32.3384 C 136.8139 32.1198 137.0677 31.946 137.3758 31.8223 C 137.6862 31.7039 138.0625 31.6453 138.5129 31.6453 L 143.1163 31.6453 L 143.1163 32.3516 L 138.5237 32.3516 C 137.9502 32.3516 137.5366 32.5182 137.2793 32.788 C 137.0242 33.0588 136.8953 33.4552 136.8953 33.9808 L 136.8953 36.4669 L 142.4593 36.4669 L 142.4593 37.182 L 136.8953 37.182 L 136.8953 40.4091 C 136.8953 40.8841 137.0158 41.2682 137.2448 41.556 C 137.4835 41.8508 137.9087 41.994 138.5258 41.994 L 143.1163 41.994 L 143.1163 41.994 " fill="#000000"/>
			<path d="M 154.4799 41.5668 L 153.6514 44.6197 L 153.0138 44.6197 L 153.3198 41.5668 L 154.4799 41.5668 Z" fill="#000000"/>
			<path d="M 97.7818 38.775 C 97.6282 38.4368 97.3995 38.138 97.1019 37.8788 C 96.8027 37.6196 96.4371 37.3902 95.9985 37.1904 C 95.5607 36.9874 95.0601 36.7994 94.4922 36.6204 C 94.0157 36.4593 93.5881 36.3157 93.2097 36.1869 C 92.8349 36.0489 92.5071 35.8981 92.2455 35.7255 C 91.9888 35.5523 91.7869 35.3473 91.6525 35.1179 C 91.5309 34.9005 91.468 34.6337 91.4579 34.3183 C 91.468 34.012 91.5365 33.7372 91.6719 33.499 C 91.8142 33.237 92.0101 33.0236 92.2564 32.8588 C 92.5018 32.6838 92.7848 32.5598 93.1073 32.4736 C 93.4072 32.3946 93.7357 32.354 94.0702 32.3516 L 97.3964 32.3516 L 97.3964 31.6453 C 97.3964 31.6453 93.9116 31.6421 93.9116 31.6453 C 93.4451 31.6605 93.0243 31.7251 92.6481 31.845 C 92.2188 31.979 91.8522 32.1732 91.5519 32.419 C 91.252 32.6678 91.0262 32.9646 90.8655 33.2984 C 90.7164 33.6188 90.6381 33.9682 90.6288 34.3537 C 90.6381 34.7227 90.6973 35.0509 90.8134 35.3281 C 90.9443 35.6333 91.1489 35.8949 91.4209 36.1215 C 91.7003 36.348 92.0573 36.553 92.4967 36.7396 C 92.9331 36.9282 93.462 37.1066 94.0775 37.2848 C 94.6232 37.4436 95.0925 37.614 95.4899 37.7946 C 95.8833 37.973 96.2053 38.1736 96.4565 38.3886 C 96.7043 38.6044 96.8921 38.8423 97.0014 39.1107 C 97.1239 39.3761 97.1812 39.6679 97.1812 39.9963 C 97.1812 40.0225 97.1783 40.0445 97.1771 40.0697 C 97.1667 40.4497 97.0772 40.7749 96.9001 41.0441 C 96.718 41.3276 96.4741 41.5508 96.1728 41.724 C 95.8724 41.894 95.5428 42.0128 95.1739 42.0854 C 94.8062 42.1612 94.4379 42.1986 94.0775 42.1986 C 93.8358 42.1986 93.5634 42.1826 93.2629 42.1528 C 92.9647 42.1184 92.6602 42.073 92.3521 42.0016 C 92.0441 41.9346 91.7372 41.8508 91.433 41.7484 C 91.1274 41.6486 90.8522 41.5354 90.5916 41.405 L 90.4558 41.3372 L 90.129 42.0208 L 90.241 42.0854 C 90.5486 42.2524 90.8755 42.3932 91.222 42.5014 C 91.5681 42.6074 91.9127 42.698 92.2564 42.7578 C 92.5986 42.8168 92.9266 42.86 93.2399 42.8792 C 93.5511 42.9038 93.8264 42.9106 94.0609 42.9106 C 95.3309 42.9106 96.3098 42.6478 96.9905 42.1098 C 97.6488 41.5944 97.9897 40.8969 98.0099 40.0285 C 98.0108 40.0011 98.0135 39.9755 98.0135 39.9483 C 98.0135 39.5061 97.9358 39.1147 97.7818 38.775 Z" fill="#000000"/>
			<path d="M 114.9983 42.7336 L 112.0538 37.5238 L 112.4391 37.3762 C 113.1462 37.1062 113.8129 36.5303 114.0809 36.1255 C 114.2292 35.9041 114.3408 35.6627 114.4138 35.4079 C 114.4883 35.1475 114.5264 34.8651 114.5264 34.5655 C 114.5264 34.1332 114.4529 33.748 114.3038 33.3874 C 114.1542 33.034 113.9406 32.7256 113.6653 32.4704 C 113.3856 32.2104 113.0498 32.005 112.6665 31.863 C 112.2795 31.7183 111.8331 31.6453 111.3392 31.6453 L 109.2662 31.6453 L 106.9912 31.6453 L 106.9912 42.7336 L 107.8554 42.7336 L 107.8554 38.675 L 111.197 37.7452 L 113.962 42.7336 L 114.9983 42.7336 ZM 107.8554 37.8242 L 107.8554 32.3468 L 111.1529 32.3468 C 111.6362 32.3468 112.0284 32.4138 112.3525 32.5498 C 112.6807 32.6886 112.9499 32.874 113.1534 33.1006 C 113.3569 33.3284 113.5016 33.5844 113.5831 33.8596 C 113.6601 34.1239 113.6991 34.3837 113.6991 34.6325 C 113.6991 35.2321 113.2852 36.3508 111.7354 36.742 L 107.8554 37.8242 Z" fill="#000000"/>
			<path d="M 68.8199 42.7336 L 64.8767 31.6453 L 63.869 31.6453 L 59.8193 42.7336 L 60.7386 42.7336 L 61.7329 39.9377 L 66.9118 39.9377 L 67.9059 42.7336 L 68.8199 42.7336 ZM 61.973 39.2257 L 63.4395 34.9663 L 64.3234 32.4508 L 64.3833 32.4508 L 65.2483 35.0179 L 66.6881 39.2257 L 61.973 39.2257 Z" fill="#000000"/>
			<path d="M 152.117 42.7336 L 149.1729 37.5238 L 149.5579 37.3762 C 150.2656 37.1062 150.9316 36.5303 151.1996 36.1255 C 151.3488 35.9041 151.4592 35.6627 151.5333 35.4079 C 151.6075 35.1475 151.6455 34.8651 151.6455 34.5655 C 151.6455 34.1332 151.5729 33.748 151.4225 33.3874 C 151.2738 33.034 151.0589 32.7256 150.7849 32.4704 C 150.5047 32.2104 150.1684 32.005 149.7864 31.863 C 149.3981 31.7183 148.9517 31.6453 148.4579 31.6453 L 146.3857 31.6453 L 144.1103 31.6453 L 144.1103 42.7336 L 144.9745 42.7336 L 144.9745 38.675 L 148.3165 37.7452 L 151.0816 42.7336 L 152.117 42.7336 ZM 144.9745 37.8242 L 144.9745 32.3468 L 148.2728 32.3468 C 148.7549 32.3468 149.1476 32.4138 149.4716 32.5498 C 149.7998 32.6886 150.0694 32.874 150.2721 33.1006 C 150.4761 33.3284 150.6204 33.5844 150.703 33.8596 C 150.7784 34.1239 150.8174 34.3837 150.8174 34.6325 C 150.8174 35.2321 150.4047 36.3508 148.8541 36.742 L 144.9745 37.8242 Z" fill="#000000"/>
			<path d="M 166.5705 38.775 C 166.4177 38.4368 166.1887 38.138 165.8906 37.8788 C 165.5918 37.6196 165.2266 37.3902 164.7872 37.1904 C 164.3499 36.9874 163.8488 36.7994 163.2805 36.6204 C 162.8049 36.4593 162.3764 36.3157 161.9985 36.1869 C 161.624 36.0489 161.2961 35.8981 161.0346 35.7255 C 160.7775 35.5523 160.5751 35.3473 160.442 35.1179 C 160.3199 34.9005 160.2567 34.6337 160.2469 34.3183 C 160.2567 34.012 160.3251 33.7372 160.461 33.499 C 160.6037 33.237 160.7996 33.0236 161.046 32.8588 C 161.2907 32.6838 161.5742 32.5598 161.8964 32.4736 C 162.1964 32.3946 162.5247 32.354 162.8588 32.3516 L 166.1854 32.3516 L 166.1854 31.6453 C 166.1854 31.6453 162.7006 31.6421 162.7006 31.6453 C 162.2337 31.6605 161.8129 31.7251 161.4368 31.845 C 161.0075 31.979 160.6405 32.1732 160.3409 32.419 C 160.0414 32.6678 159.8152 32.9646 159.6542 33.2984 C 159.5062 33.6188 159.4276 33.9682 159.4183 34.3537 C 159.4268 34.7227 159.4865 35.0509 159.6028 35.3281 C 159.733 35.6333 159.9383 35.8949 160.2104 36.1215 C 160.4893 36.348 160.8469 36.553 161.2854 36.7396 C 161.7214 36.9282 162.2507 37.1066 162.8661 37.2848 C 163.4128 37.4436 163.8811 37.614 164.2784 37.7946 C 164.6724 37.973 164.9944 38.1736 165.2455 38.3886 C 165.4934 38.6044 165.6814 38.8423 165.7905 39.1107 C 165.913 39.3761 165.9697 39.6679 165.9697 39.9963 C 165.9697 40.0225 165.9665 40.0445 165.9659 40.0697 C 165.955 40.4497 165.8658 40.7749 165.6888 41.0441 C 165.5075 41.3276 165.2635 41.5508 164.9619 41.724 C 164.6615 41.894 164.3307 42.0128 163.963 42.0854 C 163.5954 42.1612 163.2265 42.1986 162.8661 42.1986 C 162.6244 42.1986 162.3518 42.1826 162.0512 42.1528 C 161.7534 42.1184 161.4493 42.073 161.1411 42.0016 C 160.8326 41.9346 160.5267 41.8508 160.2213 41.7484 C 159.9157 41.6486 159.6407 41.5354 159.3802 41.405 L 159.2449 41.3372 L 158.9177 42.0208 L 159.03 42.0854 C 159.3373 42.2524 159.6645 42.3932 160.0112 42.5014 C 160.3575 42.6074 160.7021 42.698 161.046 42.7578 C 161.3876 42.8168 161.7155 42.86 162.029 42.8792 C 162.3398 42.9038 162.6159 42.9106 162.8495 42.9106 C 164.1207 42.9106 165.0976 42.6478 165.78 42.1098 C 166.4383 41.5944 166.7784 40.8969 166.799 40.0285 C 166.7994 40.0011 166.8027 39.9755 166.8027 39.9483 C 166.8027 39.5061 166.7253 39.1147 166.5705 38.775 Z" fill="#000000"/>
			<path d="M 175.9218 42.7336 L 171.9786 31.6453 L 170.9704 31.6453 L 166.9207 42.7336 L 167.8405 42.7336 L 168.8345 39.9377 L 174.0132 39.9377 L 175.0071 42.7336 L 175.9218 42.7336 ZM 169.0744 39.2257 L 170.5411 34.9663 L 171.425 32.4508 L 171.4848 32.4508 L 172.3493 35.0179 L 173.7887 39.2257 L 169.0744 39.2257 Z" fill="#000000"/>
		</g>
	</g>
</svg>